<?xml version="1.0" encoding="UTF-8"?>
<svg id="Layer_1" xmlns="http://www.w3.org/2000/svg" version="1.1" viewBox="0 0 1500 80.58">
  <!-- Generator: Adobe Illustrator 29.5.1, SVG Export Plug-In . SVG Version: 2.1.0 Build 141)  -->
  <path d="M176.7,46.94l14.69-25.93,14.68,25.93h-29.36ZM198.68.04h-14.59c-14.87,26.41-29.72,52.81-44.61,79.22h19.08c3.28-5.83,6.55-11.61,9.83-17.44h45.96c3.23,5.73,9.83,17.44,9.83,17.44h19.11C228.43,52.86,213.58,26.45,198.68.04"/>
  <path d="M506.08,65.56h-40.61c-2.15,0-4.34,0-6.46-.53-2.15-.51-4.03-1.53-5.47-3.27-1.41-1.71-2.15-3.77-2.54-5.91-.38-2.16-.38-4.32-.38-6.51v-18.1c0-2.19,0-4.32.38-6.48.38-2.13,1.11-4.2,2.54-5.91,1.44-1.74,3.32-2.76,5.47-3.27,2.12-.51,4.31-.53,6.46-.53h40.61c2.69,0,5.53,0,8.14,1.08,2.72,1.11,4.51,3.09,5.57,5.79h16.92c-.75-3.6-2.04-7.09-4.04-10.2-2.04-3.12-4.66-5.68-7.86-7.56-3.2-1.89-6.7-2.97-10.34-3.54-3.7-.57-7.26-.6-10.97-.6h-35.29c-4.87,0-9.53.03-14.35,1.29-4.72,1.23-8.95,3.54-12.32,7.17-3.35,3.63-5.35,8.04-6.43,12.79-1.11,4.86-1.14,9.55-1.14,14.46v9.18c0,4.9.03,9.57,1.14,14.43,1.08,4.75,3.08,9.18,6.43,12.82,3.35,3.67,7.59,5.94,12.32,7.17,4.81,1.26,9.48,1.29,14.35,1.29h35.29c4.87,0,9.53-.03,14.35-1.29,4.72-1.23,8.95-3.54,12.32-7.17,3.35-3.63,5.35-8.04,6.43-12.79,1.11-4.85,1.13-9.55,1.13-14.46v-10.3h-54.49v14.76h37.73c0,2.19,0,4.32-.38,6.48-.38,2.13-1.11,4.2-2.54,5.91-1.44,1.74-3.32,2.76-5.47,3.27-2.12.51-4.31.53-6.46.53h-.03v.03Z"/>
  <polygon points="312.13 1.4 366.02 62.9 366.02 1.4 382.65 1.4 382.65 79.26 357.95 79.26 304.04 17.45 304.04 79.28 287.41 79.28 287.41 1.4 312.13 1.4"/>
  <polygon points="589.09 79.26 589.09 1.4 678.56 1.4 678.56 16.28 605.72 16.28 605.72 32.94 670.79 32.94 670.79 47.59 605.72 47.59 605.72 64.35 678.56 64.35 678.56 79.26 589.09 79.26"/>
  <polygon points="1119.54 1.4 1138.62 1.4 1171.41 59.64 1204.26 1.4 1223.33 1.4 1179.49 79.26 1163.37 79.26 1119.54 1.4"/>
  <path d="M1065.78,50.64c0,2.11,0,4.05-.53,6.09-.51,2.01-1.47,3.82-2.93,5.31-1.46,1.48-3.29,2.43-5.29,2.94-2.07.53-4.01.53-6.07.53h-40.61c-2.09,0-4.03,0-6.07-.53-2.01-.51-3.8-1.46-5.29-2.94-1.5-1.46-2.43-3.3-2.94-5.31-.53-2.06-.53-4.02-.53-6.09v-20.71c0-2.11,0-4.05.53-6.09.51-2.01,1.46-3.82,2.94-5.31,1.46-1.48,3.28-2.43,5.29-2.94,2.06-.53,4.01-.53,6.07-.53h40.61c2.09,0,4.03,0,6.07.53,2.01.51,3.8,1.46,5.29,2.94,1.46,1.48,2.43,3.3,2.93,5.31.53,2.06.53,4.02.53,6.09v20.71ZM1082.23,27.08c-.18-2.34-.51-4.65-1.14-6.93-1.22-4.55-3.46-8.7-6.85-12.06-3.38-3.37-7.53-5.58-12.08-6.78-2.27-.6-4.58-.93-6.91-1.11-2.33-.18-4.66-.18-7-.18h-35.24c-2.34,0-4.66,0-7,.18-2.34.18-4.64.51-6.92,1.11-4.54,1.2-8.7,3.42-12.08,6.78-3.38,3.37-5.62,7.51-6.85,12.06-.63,2.28-.96,4.55-1.13,6.93-.18,2.34-.18,4.68-.18,7.02v12.39c0,2.34,0,4.68.18,7.02.18,2.34.51,4.65,1.13,6.93,1.23,4.56,3.47,8.7,6.85,12.06,3.38,3.37,7.54,5.58,12.08,6.78,2.27.6,4.58.93,6.92,1.11,2.33.18,4.66.18,7,.18h35.24c2.33,0,4.66,0,7-.18,2.34-.18,4.64-.51,6.91-1.11,4.55-1.2,8.69-3.42,12.08-6.78,3.37-3.37,5.62-7.51,6.85-12.06.63-2.28.96-4.55,1.14-6.93.18-2.34.18-4.68.18-7.02v-12.39c0-2.34,0-4.68-.18-7.02"/>
  <polygon points="1264.22 79.26 1264.22 1.4 1353.72 1.4 1353.72 16.28 1280.83 16.28 1280.83 32.94 1345.93 32.94 1345.93 47.59 1280.83 47.59 1280.83 64.35 1353.72 64.35 1353.72 79.26 1264.22 79.26"/>
  <path d="M91.11,51.85c-.8-.91-1.72-1.57-2.8-2.09-1.06-.52-2.18-.86-3.3-1.19,2.02-.7,4.02-1.4,5.7-2.86,1.7-1.45,2.67-3.33,3.27-5.43.58-2.03.79-4.28.88-6.36.1-2.15.08-4.29.08-6.44,0-2.97,0-5.93-.01-8.9,0-2.42-.04-4.59-.74-6.97-.67-2.27-1.84-4.32-3.51-6-1.67-1.68-3.72-2.86-5.98-3.52-2.37-.69-4.52-.73-6.94-.73H0v77.91h16.62v-24.43h49.09c1.73,0,3.8,0,5.53.17.9.09,1.84.23,2.71.51.88.28,1.7.69,2.37,1.36.67.67,1.08,1.5,1.37,2.38.28.88.42,1.82.5,2.72.16,1.72.16,3.82.16,5.55v11.74h16.61v-7.06c0-4.44.05-9.62-.94-14.03-.5-2.21-1.34-4.58-2.91-6.33ZM78.56,30.88c0,1.25,0,2.49-.21,3.72-.21,1.22-.64,2.41-1.52,3.34-.89.94-2.05,1.4-3.28,1.63-1.23.23-2.47.23-3.71.23H16.6v-23.52h53.25c1.24,0,2.47,0,3.71.23,1.22.23,2.38.69,3.28,1.63.88.93,1.3,2.12,1.52,3.34.22,1.24.21,2.48.21,3.72v5.66h0Z"/>
  <path d="M923.68,51.85c-.8-.91-1.72-1.57-2.8-2.09-1.06-.52-2.18-.86-3.3-1.19,2.02-.7,4.02-1.4,5.7-2.86,1.7-1.45,2.67-3.33,3.27-5.43.58-2.03.79-4.28.88-6.36.1-2.15.08-4.29.08-6.44,0-2.97,0-5.93-.01-8.9,0-2.42-.04-4.59-.74-6.97-.67-2.27-1.84-4.32-3.51-6-1.67-1.68-3.72-2.86-5.98-3.52-2.37-.69-4.52-.73-6.94-.73h-77.76v77.91h16.62v-24.43h49.09c1.73,0,3.8,0,5.53.17.9.09,1.84.23,2.71.51.88.28,1.7.69,2.37,1.36.67.67,1.08,1.5,1.37,2.38.28.88.42,1.82.5,2.72.16,1.72.16,3.82.16,5.55v11.74h16.61v-7.06c0-4.44.05-9.62-.94-14.03-.5-2.21-1.34-4.58-2.91-6.33ZM911.13,30.88c0,1.25,0,2.49-.21,3.72-.21,1.22-.64,2.41-1.52,3.34-.89.94-2.05,1.4-3.28,1.63-1.23.23-2.47.23-3.71.23h-53.25v-23.52h53.25c1.24,0,2.47,0,3.71.23,1.22.23,2.38.69,3.28,1.63.88.93,1.3,2.12,1.52,3.34.22,1.24.21,2.48.21,3.72v5.66h0Z"/>
  <path d="M1496.14,51.85c-.8-.91-1.72-1.57-2.8-2.09-1.06-.52-2.18-.86-3.3-1.19,2.02-.7,4.02-1.4,5.7-2.86,1.7-1.45,2.67-3.33,3.27-5.43.58-2.03.79-4.28.88-6.36.1-2.15.08-4.29.08-6.44,0-2.97,0-5.93-.01-8.9,0-2.42-.04-4.59-.74-6.97-.67-2.27-1.84-4.32-3.51-6-1.67-1.68-3.72-2.86-5.98-3.52-2.37-.69-4.52-.73-6.94-.73h-77.76v77.91h16.62v-24.43h49.09c1.73,0,3.8,0,5.53.17.9.09,1.84.23,2.71.51.88.28,1.7.69,2.37,1.36.67.67,1.08,1.5,1.37,2.38.28.88.42,1.82.5,2.72.16,1.72.16,3.82.16,5.55v11.74h16.61v-7.06c0-4.44.05-9.62-.94-14.03-.5-2.21-1.34-4.58-2.91-6.33ZM1483.58,30.88c0,1.25,0,2.49-.21,3.72-.21,1.22-.64,2.41-1.52,3.34-.89.94-2.05,1.4-3.28,1.63-1.23.23-2.47.23-3.71.23h-53.25v-23.52h53.25c1.24,0,2.47,0,3.71.23,1.22.23,2.38.69,3.28,1.63.88.93,1.3,2.12,1.52,3.34.22,1.24.21,2.48.21,3.72v5.66h0Z"/>
</svg>